<?xml version="1.0" standalone="no"?>
<!DOCTYPE svg PUBLIC "-//W3C//DTD SVG 20010904//EN"
 "http://www.w3.org/TR/2001/REC-SVG-20010904/DTD/svg10.dtd">
<svg version="1.0" xmlns="http://www.w3.org/2000/svg"
 width="512.000000pt" height="512.000000pt" viewBox="0 0 512.000000 512.000000"
 preserveAspectRatio="xMidYMid meet">
<metadata>
Created by potrace 1.11, written by Peter Selinger 2001-2013
</metadata>
<g transform="translate(0.000000,512.000000) scale(0.100000,-0.100000)"
fill="#000000" stroke="none">
<path d="M1298 4375 c-202 -50 -391 -201 -483 -389 -84 -171 -88 -197 -93
-634 -4 -420 -1 -446 56 -507 15 -17 260 -207 545 -424 l517 -394 0 -274 c0
-248 -2 -279 -20 -330 -23 -67 -63 -120 -111 -148 -28 -16 -56 -21 -152 -24
-178 -5 -239 25 -293 141 -29 62 -29 65 -32 281 l-4 217 -254 0 -254 0 0 -209
c0 -318 36 -468 152 -642 88 -132 199 -221 338 -270 61 -22 79 -24 310 -24
225 0 251 2 315 22 226 71 398 261 482 530 l28 88 0 426 0 426 -30 48 c-25 41
-116 114 -558 449 l-527 401 3 280 c3 303 5 316 63 392 45 60 93 76 224 77 74
1 129 -4 154 -13 55 -19 110 -73 137 -134 23 -49 24 -66 27 -274 l3 -223 256
0 255 0 -4 258 c-4 244 -6 262 -32 346 -85 280 -273 473 -516 530 -86 21 -419
21 -502 1z"/>
<path d="M2790 2565 l0 -1805 455 0 c484 0 538 4 659 51 244 96 432 340 476
619 16 105 13 601 -5 705 -19 108 -62 221 -116 303 -44 67 -132 162 -188 203
l-34 25 149 158 c215 227 198 185 202 516 4 308 -5 398 -48 534 -83 256 -271
426 -532 480 -64 13 -156 16 -548 16 l-470 0 0 -1805z m934 1283 c53 -16 109
-73 131 -134 15 -40 19 -88 23 -261 l4 -212 -288 -301 c-158 -165 -289 -300
-291 -300 -1 0 -3 275 -3 610 l0 610 191 0 c122 0 206 -4 233 -12z m16 -1609
c48 -24 85 -64 112 -124 22 -49 23 -58 23 -345 0 -289 -1 -296 -24 -347 -28
-64 -95 -128 -147 -142 -22 -6 -121 -11 -221 -11 l-183 0 0 316 0 316 178 183
c194 201 183 194 262 154z"/>
</g>
</svg>
